<svg xmlns="http://www.w3.org/2000/svg" viewBox="0 0 200 200" width="512" height="512" shape-rendering="geometricPrecision">
    <defs>
      <linearGradient id="stone_g_284771450" x1="0%" y1="0%" x2="0%" y2="100%">
        <stop offset="0%" stop-color="#1d1d1f" stop-opacity="1" />
        <stop offset="100%" stop-color="#3a3a3c" stop-opacity="0.94" />
      </linearGradient>
      <filter id="stone_s_284771450" x="-20%" y="-20%" width="140%" height="140%">
        <feDropShadow dx="0" dy="3.5" stdDeviation="3" flood-color="#000000" flood-opacity="0.55" />
      </filter>
    </defs>
  <rect width="200" height="200" fill="#ffffff" rx="44" /><g filter="url(#stone_s_284771450)"><path d="M 39.20,44.40 L 39.20,44.40 A 5.20,5.20 0 0,1 44.40,39.20 L 78.10,39.20 A 5.20,5.20 0 0,1 83.30,44.40 L 83.30,80.50 A 5.20,5.20 0 0,0 88.50,85.70 L 111.50,85.70 A 5.20,5.20 0 0,0 116.70,80.50 L 116.70,44.40 A 5.20,5.20 0 0,1 121.90,39.20 L 155.60,39.20 A 5.20,5.20 0 0,1 160.80,44.40 L 160.80,93.60 A 5.20,5.20 0 0,1 155.60,98.80 L 119.50,98.80 A 5.20,5.20 0 0,0 114.30,104.00 L 114.30,109.10 A 5.20,5.20 0 0,1 109.10,114.30 L 104.00,114.30 A 5.20,5.20 0 0,0 98.80,119.50 L 98.80,124.60 A 5.20,5.20 0 0,1 93.60,129.80 L 44.40,129.80 A 5.20,5.20 0 0,1 39.20,124.60 Z M 54.59,78.93 L 54.59,78.93 A 5.20,5.20 0 0,1 59.73,74.50 L 62.77,74.50 A 5.20,5.20 0 0,1 67.91,78.93 L 69.35,88.53 A 5.20,5.20 0 0,1 64.21,94.50 L 58.29,94.50 A 5.20,5.20 0 0,1 53.15,88.53 Z" fill="url(#stone_g_284771450)" fill-rule="evenodd" /><path d="M 116.70,106.40 L 116.70,106.40 A 5.20,5.20 0 0,1 121.90,101.20 L 155.60,101.20 A 5.20,5.20 0 0,1 160.80,106.40 L 160.80,155.60 A 5.20,5.20 0 0,1 155.60,160.80 L 44.40,160.80 A 5.20,5.20 0 0,1 39.20,155.60 L 39.20,137.40 A 5.20,5.20 0 0,1 44.40,132.20 L 96.00,132.20 A 5.20,5.20 0 0,0 101.20,127.00 L 101.20,121.90 A 5.20,5.20 0 0,1 106.40,116.70 L 111.50,116.70 A 5.20,5.20 0 0,0 116.70,111.50 Z M 91.64,143.34 L 91.64,143.34 A 5.20,5.20 0 0,1 96.84,138.14 L 103.16,138.14 A 5.20,5.20 0 0,1 108.36,143.34 L 108.36,149.66 A 5.20,5.20 0 0,1 103.16,154.86 L 96.84,154.86 A 5.20,5.20 0 0,1 91.64,149.66 Z" fill="url(#stone_g_284771450)" fill-rule="evenodd" /></g><g fill="none" stroke="rgba(255,255,255,0.15)" stroke-width="1.2" stroke-linejoin="round"><path d="M 39.20,44.40 L 39.20,44.40 A 5.20,5.20 0 0,1 44.40,39.20 L 78.10,39.20 A 5.20,5.20 0 0,1 83.30,44.40 L 83.30,80.50 A 5.20,5.20 0 0,0 88.50,85.70 L 111.50,85.70 A 5.20,5.20 0 0,0 116.70,80.50 L 116.70,44.40 A 5.20,5.20 0 0,1 121.90,39.20 L 155.60,39.20 A 5.20,5.20 0 0,1 160.80,44.40 L 160.80,93.60 A 5.20,5.20 0 0,1 155.60,98.80 L 119.50,98.80 A 5.20,5.20 0 0,0 114.30,104.00 L 114.30,109.10 A 5.20,5.20 0 0,1 109.10,114.30 L 104.00,114.30 A 5.20,5.20 0 0,0 98.80,119.50 L 98.80,124.60 A 5.20,5.20 0 0,1 93.60,129.80 L 44.40,129.80 A 5.20,5.20 0 0,1 39.20,124.60 Z M 54.59,78.93 L 54.59,78.93 A 5.20,5.20 0 0,1 59.73,74.50 L 62.77,74.50 A 5.20,5.20 0 0,1 67.91,78.93 L 69.35,88.53 A 5.20,5.20 0 0,1 64.21,94.50 L 58.29,94.50 A 5.20,5.20 0 0,1 53.15,88.53 Z" /><path d="M 116.70,106.40 L 116.70,106.40 A 5.20,5.20 0 0,1 121.90,101.20 L 155.60,101.20 A 5.20,5.20 0 0,1 160.80,106.40 L 160.80,155.60 A 5.20,5.20 0 0,1 155.60,160.80 L 44.40,160.80 A 5.20,5.20 0 0,1 39.20,155.60 L 39.20,137.40 A 5.20,5.20 0 0,1 44.40,132.20 L 96.00,132.20 A 5.20,5.20 0 0,0 101.20,127.00 L 101.20,121.90 A 5.20,5.20 0 0,1 106.40,116.70 L 111.50,116.70 A 5.20,5.20 0 0,0 116.70,111.50 Z M 91.64,143.34 L 91.64,143.34 A 5.20,5.20 0 0,1 96.84,138.14 L 103.16,138.14 A 5.20,5.20 0 0,1 108.36,143.34 L 108.36,149.66 A 5.20,5.20 0 0,1 103.16,154.86 L 96.84,154.86 A 5.20,5.20 0 0,1 91.64,149.66 Z" /></g></svg>